<svg width="39" height="39" viewBox="0 0 39 39" fill="none" xmlns="http://www.w3.org/2000/svg">
<path d="M20.5665 0.428917H16.3477V0.452104C15.7623 0.529637 15.2272 0.796116 14.8399 1.20288C14.4526 1.60965 14.2391 2.12956 14.2383 2.66769V3.30733C14.2383 3.90109 14.4976 4.47053 14.9591 4.89038C15.4206 5.31023 16.0466 5.5461 16.6993 5.5461C17.3519 5.5461 17.9779 5.31023 18.4394 4.89038C18.9009 4.47053 19.1602 3.90109 19.1602 3.30733V2.66769C19.1605 2.33572 19.0792 2.0079 18.9223 1.70821H20.5665V0.428917ZM17.754 2.66769V3.30733C17.754 3.5618 17.6428 3.80585 17.445 3.98578C17.2472 4.16572 16.979 4.26681 16.6993 4.26681C16.4195 4.26681 16.1513 4.16572 15.9535 3.98578C15.7557 3.80585 15.6446 3.5618 15.6446 3.30733V2.66769C15.6446 2.41322 15.7557 2.16917 15.9535 1.98924C16.1513 1.8093 16.4195 1.70821 16.6993 1.70821C16.979 1.70821 17.2472 1.8093 17.445 1.98924C17.6428 2.16917 17.754 2.41322 17.754 2.66769Z" fill="black"/>
<path d="M35.2442 32.4613L32.55 15.9198L35.9283 11.0025C35.9949 10.9056 36.0317 10.7944 36.0351 10.6802C36.0384 10.566 36.008 10.4531 35.9472 10.3532C35.8863 10.2534 35.7972 10.1701 35.689 10.1121C35.5809 10.0542 35.4576 10.0236 35.3321 10.0236H31.8165C31.6972 10.0236 31.5799 10.0512 31.4756 10.1038C31.3713 10.1564 31.2834 10.2323 31.2202 10.3243L27.9111 15.1408H20.5665C20.4392 15.1408 20.3143 15.1723 20.2051 15.2318C20.0959 15.2913 20.0066 15.3766 19.9465 15.4787C19.8865 15.5808 19.858 15.6958 19.8642 15.8114C19.8703 15.927 19.9108 16.039 19.9815 16.1353L21.3877 18.0543C21.4446 18.1319 21.5195 18.1973 21.6072 18.2458C21.6948 18.2944 21.793 18.3248 21.895 18.3352L27.3934 18.8909L28.2357 24.0634L23.6475 32.4113H22.066L23.3735 22.8959C23.3945 22.7436 23.3545 22.5895 23.2608 22.4618L17.7779 14.98L18.3165 10.5673L20.1041 11.787L21.5798 13.1295C21.8388 13.3674 22.1471 13.5562 22.4869 13.685C22.8266 13.8137 23.1911 13.8799 23.5591 13.8797C23.699 13.8796 23.8386 13.8703 23.977 13.8518C24.4114 13.7956 24.8251 13.6469 25.1845 13.4178C25.5438 13.1888 25.8386 12.8857 26.0449 12.5334L29.6227 6.48871C29.6803 6.39129 29.7091 6.28196 29.7064 6.17138C29.7037 6.06081 29.6695 5.95276 29.6071 5.8578C29.5448 5.76284 29.4564 5.6842 29.3507 5.62957C29.245 5.57494 29.1255 5.54618 29.004 5.5461H26.1915C26.0757 5.54611 25.9618 5.5721 25.8597 5.62178C25.7577 5.67147 25.6707 5.7433 25.6065 5.83091L23.2697 9.01964L23.173 8.93168L21.1842 7.12244C20.8585 6.82455 20.4711 6.58838 20.0444 6.4276C19.6177 6.26682 19.1602 6.18462 18.6983 6.18575H14.0386C13.6918 6.18441 13.3502 6.26129 13.0441 6.4095C12.7381 6.55771 12.4772 6.77264 12.2849 7.03505L6.79698 10.62C6.65142 10.7151 6.55124 10.8572 6.51687 11.0172L5.11062 17.577C5.09077 17.6696 5.09369 17.7651 5.11919 17.8566C5.14469 17.9481 5.19212 18.0333 5.2581 18.1062C5.32407 18.179 5.40695 18.2377 5.50078 18.2779C5.59461 18.3182 5.69708 18.3391 5.80083 18.3391H7.9102C8.06297 18.3391 8.21159 18.2938 8.33356 18.2102C8.45554 18.1265 8.54425 18.0089 8.58626 17.8753L9.92756 13.6046L11.1107 12.7971L10.7309 15.0438L11.4258 15.1408L10.7243 15.0983L10.0346 24.5091L4.52905 31.3954C4.43053 31.5186 4.38359 31.6698 4.39669 31.8217C4.40979 31.9736 4.48207 32.1163 4.6005 32.224L4.80643 32.4113H3.69145C2.75905 32.4113 1.86484 32.7483 1.20553 33.3481C0.546222 33.9479 0.175827 34.7614 0.175827 35.6096C0.175827 36.4578 0.546222 37.2713 1.20553 37.8711C1.86484 38.4709 2.75905 38.8078 3.69145 38.8078H34.629C35.5072 38.807 36.3534 38.5071 37.0008 37.9672C37.6482 37.4272 38.05 36.6864 38.1272 35.8905C38.2043 35.0946 37.9512 34.3013 37.4177 33.6666C36.8841 33.032 36.1087 32.602 35.2442 32.4613ZM32.3557 23.4563H29.5585L28.4126 16.4201H31.21L32.3557 23.4563ZM32.564 24.7356L33.814 32.4113H31.0166L29.7668 24.7356H32.564ZM32.2062 11.3029H34.0635L31.4267 15.1408H29.5694L32.2062 11.3029ZM22.376 17.0966L21.8802 16.4201H26.9913L27.1805 17.5822L22.376 17.0966ZM28.5951 26.2701L29.5952 32.4113H25.2197L28.5951 26.2701ZM20.6489 32.4113H19.9173L20.6427 23.5035C20.6496 23.4181 20.6376 23.3323 20.6074 23.2512C20.5772 23.1701 20.5294 23.0953 20.4669 23.0313L18.3183 20.8325L19.6904 19.8963L21.9455 22.9736L20.6489 32.4113ZM13.7678 20.8977H11.7087L12.0837 15.7805H14.8008L13.7678 20.8977ZM16.2304 15.7805H16.6746L18.9094 18.8301L17.3809 19.8729L15.7428 18.1964L16.2304 15.7805ZM23.964 10.3785L26.5677 6.8254H27.8267L24.8071 11.9271C24.7031 12.1027 24.5555 12.2537 24.376 12.3681C24.1965 12.4826 23.9901 12.5573 23.7732 12.5862C23.5563 12.6152 23.335 12.5976 23.1269 12.5349C22.9188 12.4722 22.7297 12.3662 22.5747 12.2252L21.5608 11.3029L22.6758 10.2886L22.8818 10.476C22.9553 10.5429 23.0443 10.5941 23.1422 10.626C23.2402 10.6578 23.3447 10.6695 23.4482 10.6602C23.5517 10.6509 23.6517 10.6208 23.7409 10.572C23.8301 10.5233 23.9062 10.4572 23.964 10.3785ZM14.0386 7.46505H18.6983C18.9755 7.46438 19.25 7.5137 19.506 7.61017C19.762 7.70664 19.9945 7.84834 20.1899 8.02706L21.6815 9.384L20.5004 10.4584L18.1758 8.87228C18.0766 8.80461 17.9596 8.762 17.8364 8.74877C17.7133 8.73554 17.5885 8.75216 17.4748 8.79695C17.361 8.84173 17.2622 8.91309 17.1885 9.00379C17.1148 9.09449 17.0688 9.2013 17.0551 9.31339L16.4215 14.5012H12.2454L13.344 8.00739C13.3688 7.85615 13.4527 7.7181 13.5802 7.61851C13.7078 7.51891 13.8705 7.46443 14.0386 7.46505ZM8.89458 12.7102C8.77185 12.7939 8.68259 12.9118 8.6404 13.046L7.37987 17.0598H6.65433L7.84376 11.5108L11.761 8.95223L11.4165 10.9895L8.89458 12.7102ZM11.2914 25.1118C11.3693 25.0142 11.4154 24.8985 11.4242 24.7781L11.6149 22.177H13.5096L12.7942 25.7217L6.47653 32.1215L6.0195 31.7057L11.2914 25.1118ZM13.9731 26.4422C14.0598 26.3544 14.1181 26.2465 14.1415 26.1304L15.4206 19.7924L19.2182 23.6789L18.5072 32.4113H8.08045L13.9731 26.4422ZM34.629 37.5285H3.69145C3.13201 37.5285 2.59548 37.3264 2.1999 36.9665C1.80431 36.6066 1.58208 36.1185 1.58208 35.6096C1.58208 35.1006 1.80431 34.6126 2.1999 34.2527C2.59548 33.8928 3.13201 33.6906 3.69145 33.6906H34.629C35.1884 33.6906 35.7249 33.8928 36.1205 34.2527C36.5161 34.6126 36.7383 35.1006 36.7383 35.6096C36.7383 36.1185 36.5161 36.6066 36.1205 36.9665C35.7249 37.3264 35.1884 37.5285 34.629 37.5285Z" fill="black"/>
<path d="M3.69145 36.2492C4.07978 36.2492 4.39458 35.9628 4.39458 35.6096C4.39458 35.2563 4.07978 34.9699 3.69145 34.9699C3.30313 34.9699 2.98833 35.2563 2.98833 35.6096C2.98833 35.9628 3.30313 36.2492 3.69145 36.2492Z" fill="black"/>
<path d="M6.50395 36.2492C6.89228 36.2492 7.20708 35.9628 7.20708 35.6096C7.20708 35.2563 6.89228 34.9699 6.50395 34.9699C6.11563 34.9699 5.80083 35.2563 5.80083 35.6096C5.80083 35.9628 6.11563 36.2492 6.50395 36.2492Z" fill="black"/>
<path d="M9.31645 36.2492C9.70478 36.2492 10.0196 35.9628 10.0196 35.6096C10.0196 35.2563 9.70478 34.9699 9.31645 34.9699C8.92813 34.9699 8.61333 35.2563 8.61333 35.6096C8.61333 35.9628 8.92813 36.2492 9.31645 36.2492Z" fill="black"/>
<path d="M12.129 36.2492C12.5173 36.2492 12.8321 35.9628 12.8321 35.6096C12.8321 35.2563 12.5173 34.9699 12.129 34.9699C11.7406 34.9699 11.4258 35.2563 11.4258 35.6096C11.4258 35.9628 11.7406 36.2492 12.129 36.2492Z" fill="black"/>
<path d="M14.9415 36.2492C15.3298 36.2492 15.6446 35.9628 15.6446 35.6096C15.6446 35.2563 15.3298 34.9699 14.9415 34.9699C14.5531 34.9699 14.2383 35.2563 14.2383 35.6096C14.2383 35.9628 14.5531 36.2492 14.9415 36.2492Z" fill="black"/>
<path d="M17.754 36.2492C18.1423 36.2492 18.4571 35.9628 18.4571 35.6096C18.4571 35.2563 18.1423 34.9699 17.754 34.9699C17.3656 34.9699 17.0508 35.2563 17.0508 35.6096C17.0508 35.9628 17.3656 36.2492 17.754 36.2492Z" fill="black"/>
<path d="M20.5665 36.2492C20.9548 36.2492 21.2696 35.9628 21.2696 35.6096C21.2696 35.2563 20.9548 34.9699 20.5665 34.9699C20.1781 34.9699 19.8633 35.2563 19.8633 35.6096C19.8633 35.9628 20.1781 36.2492 20.5665 36.2492Z" fill="black"/>
<path d="M23.379 36.2492C23.7673 36.2492 24.0821 35.9628 24.0821 35.6096C24.0821 35.2563 23.7673 34.9699 23.379 34.9699C22.9906 34.9699 22.6758 35.2563 22.6758 35.6096C22.6758 35.9628 22.9906 36.2492 23.379 36.2492Z" fill="black"/>
<path d="M26.1915 36.2492C26.5798 36.2492 26.8946 35.9628 26.8946 35.6096C26.8946 35.2563 26.5798 34.9699 26.1915 34.9699C25.8031 34.9699 25.4883 35.2563 25.4883 35.6096C25.4883 35.9628 25.8031 36.2492 26.1915 36.2492Z" fill="black"/>
<path d="M29.004 36.2492C29.3923 36.2492 29.7071 35.9628 29.7071 35.6096C29.7071 35.2563 29.3923 34.9699 29.004 34.9699C28.6156 34.9699 28.3008 35.2563 28.3008 35.6096C28.3008 35.9628 28.6156 36.2492 29.004 36.2492Z" fill="black"/>
<path d="M31.8165 36.2492C32.2048 36.2492 32.5196 35.9628 32.5196 35.6096C32.5196 35.2563 32.2048 34.9699 31.8165 34.9699C31.4281 34.9699 31.1133 35.2563 31.1133 35.6096C31.1133 35.9628 31.4281 36.2492 31.8165 36.2492Z" fill="black"/>
<path d="M34.629 36.2492C35.0173 36.2492 35.3321 35.9628 35.3321 35.6096C35.3321 35.2563 35.0173 34.9699 34.629 34.9699C34.2406 34.9699 33.9258 35.2563 33.9258 35.6096C33.9258 35.9628 34.2406 36.2492 34.629 36.2492Z" fill="black"/>
</svg>
