<svg width="43" height="37" viewBox="0 0 43 37" fill="none" xmlns="http://www.w3.org/2000/svg">
<path d="M41.3065 3.73634L40.1077 2.16661C39.6798 1.60906 39.1298 1.15704 38.4999 0.845298C37.8701 0.533559 37.1771 0.370402 36.4743 0.36837H34.8712C34.8373 0.368611 34.8036 0.373339 34.771 0.382433C32.412 1.08552 30.3337 2.51208 28.8296 4.46056L28.5132 4.86837C28.4948 4.89122 28.48 4.9167 28.4692 4.94396C28.2425 5.46427 26.2772 10.075 26.9153 11.7783C27.4796 13.2795 28.3848 14.6805 29.1864 15.7404C23.7899 19.5022 26.5954 25.1852 27.5253 27.0678C27.6739 27.3647 27.7663 27.6865 27.7977 28.017C26.177 27.6514 24.0184 27.4492 22.4311 28.3563C20.2462 29.6043 16.3948 30.0684 15.1837 30.1879V26.0359C15.184 26.0158 15.1817 25.9957 15.1766 25.9762C15.1659 25.9041 15.132 25.8374 15.08 25.7863L10.8594 21.5658C10.8267 21.533 10.7878 21.5069 10.745 21.4891C10.7021 21.4713 10.6562 21.4621 10.6098 21.4621H4.6403C4.59392 21.4621 4.548 21.4713 4.50517 21.4891C4.46233 21.5069 4.42343 21.533 4.39069 21.5658L0.170185 25.7863C0.118151 25.8374 0.0842053 25.9041 0.0735049 25.9762C0.0684724 25.9957 0.0661071 26.0158 0.0664737 26.0359V32.0266C0.066674 32.1199 0.103249 32.2094 0.168427 32.2762L4.39069 36.5055C4.42343 36.5383 4.46233 36.5644 4.50517 36.5822C4.548 36.6 4.59392 36.6092 4.6403 36.6092H10.6098C10.6562 36.6092 10.7021 36.6 10.745 36.5822C10.7878 36.5644 10.8267 36.5383 10.8594 36.5055L12.9266 34.4348C13.7247 34.6686 19.5975 36.3754 22.1604 36.8201C22.7196 36.9027 23.2845 36.9397 23.8497 36.9309C27.1842 36.9309 32.4928 36.0906 32.7618 36.0484C32.8197 36.039 32.8743 36.0153 32.9206 35.9794C32.967 35.9434 33.0036 35.8965 33.0272 35.8428C33.3577 35.0625 33.592 34.245 33.7251 33.4082C33.9167 32.4115 34.0819 31.5502 34.8764 30.4076C41.6229 20.715 39.9758 13.9317 39.7438 13.1195C40.1639 12.71 40.5946 12.2986 41.0165 11.9067C42.2399 10.7272 42.254 9.05021 42.254 8.97989V6.50841C42.2476 5.50601 41.915 4.53293 41.3065 3.73634ZM10.4639 22.1652L14.4805 26.1889V31.8596L10.4639 35.8762H4.7862L0.769599 31.8596V26.1889L4.7862 22.1652H10.4639ZM41.5508 8.97989C41.5508 8.99396 41.5385 10.4248 40.5331 11.3969C40.0391 11.8539 39.5346 12.3408 39.0477 12.819C37.362 14.4713 35.8977 16.0322 35.8784 16.0516C35.8145 16.1196 35.7803 16.2103 35.7833 16.3036C35.7862 16.3969 35.8261 16.4852 35.8942 16.549C35.9623 16.6129 36.0529 16.6471 36.1462 16.6442C36.2395 16.6412 36.3278 16.6013 36.3917 16.5332C36.4075 16.5139 37.6467 15.1938 39.1532 13.6996C39.4784 15.3608 40.1481 21.6027 34.2999 30.0068C33.4192 31.2725 33.2329 32.2445 33.0342 33.2746C32.9177 33.9963 32.7244 34.7034 32.4577 35.384C31.2483 35.5686 24.6635 36.5406 22.2799 36.1275C20.0352 35.7373 15.0255 34.31 13.4944 33.867L15.0817 32.2762C15.1469 32.2094 15.1835 32.1199 15.1837 32.0266V30.8945C16.3649 30.7856 20.4061 30.3233 22.7809 28.9662C24.3032 28.0961 26.5356 28.4178 28.0737 28.8115C28.6653 28.9626 29.247 29.1499 29.8157 29.3723C29.9006 29.4024 29.9938 29.3988 30.0761 29.3622C30.1584 29.3256 30.2236 29.2588 30.2581 29.1756C30.2926 29.0924 30.2938 28.9991 30.2616 28.915C30.2293 28.8309 30.166 28.7624 30.0846 28.7236C29.5702 28.5177 29.0443 28.3416 28.5096 28.1963C28.5034 27.695 28.3819 27.2018 28.1546 26.7549C26.6569 23.7227 25.1909 19.3527 29.6206 16.2942C30.2903 17.1256 30.8124 17.6512 30.8616 17.7004C30.8941 17.7331 30.9327 17.7592 30.9752 17.7769C31.0177 17.7947 31.0633 17.804 31.1094 17.8041C31.203 17.8036 31.2926 17.7663 31.3591 17.7004C31.3917 17.6677 31.4177 17.629 31.4354 17.5863C31.4531 17.5436 31.4622 17.4979 31.4622 17.4517C31.4622 17.4055 31.4531 17.3597 31.4354 17.317C31.4177 17.2744 31.3917 17.2356 31.3591 17.2029C31.3327 17.1766 28.6942 14.517 27.5745 11.5305C27.121 10.3246 28.5026 6.63849 29.095 5.26388L29.385 4.89122C30.7889 3.07264 32.7251 1.73736 34.9239 1.0715H36.4743C37.069 1.07318 37.6555 1.21128 38.1885 1.47519C38.7215 1.7391 39.1868 2.12177 39.5487 2.59376L40.7475 4.16349C41.2634 4.83685 41.5455 5.66017 41.5508 6.50841V8.97989Z" fill="black"/>
<path d="M34.604 18.3736C34.5583 18.3803 34.5143 18.3959 34.4746 18.4196C34.435 18.4433 34.4003 18.4745 34.3727 18.5116C34.3451 18.5486 34.3251 18.5908 34.3138 18.6356C34.3025 18.6804 34.3002 18.727 34.3069 18.7727C34.836 22.4817 32.4401 26.0025 32.4155 26.0377C32.3793 26.0906 32.3582 26.1524 32.3545 26.2164C32.3508 26.2804 32.3646 26.3442 32.3944 26.401C32.4242 26.4577 32.469 26.5053 32.5238 26.5385C32.5786 26.5718 32.6414 26.5894 32.7055 26.5897C32.7625 26.5899 32.8186 26.576 32.8689 26.5493C32.9192 26.5227 32.9621 26.484 32.9938 26.4367C33.0993 26.2856 35.5708 22.6592 35.0012 18.6725C34.9882 18.5802 34.939 18.4968 34.8645 18.4408C34.79 18.3848 34.6963 18.3606 34.604 18.3736Z" fill="black"/>
<path d="M8.72194 19.7447C8.78613 19.7446 8.8502 19.7393 8.91354 19.7289C9.12071 19.6939 9.31319 19.5993 9.46741 19.4566C9.62164 19.314 9.73093 19.1294 9.7819 18.9256C9.78366 18.9221 9.78366 18.9203 9.78541 18.9186C10.4662 16.3741 11.7816 14.0441 13.6083 12.1466C15.4351 10.2491 17.7136 8.84622 20.2303 8.06934L20.3973 8.88497C20.4264 9.0059 20.4871 9.11695 20.5731 9.20679C20.6591 9.29662 20.7674 9.36204 20.887 9.39635C21.0065 9.43066 21.1331 9.43264 21.2536 9.4021C21.3742 9.37155 21.4845 9.30957 21.5733 9.22247L24.4807 6.28692C24.6157 6.15968 24.7147 5.99905 24.7676 5.82127C24.8206 5.6435 24.8256 5.45489 24.7823 5.27454C24.7389 5.09418 24.6487 4.92847 24.5208 4.79418C24.3928 4.65989 24.2316 4.56178 24.0536 4.50978L20.1987 3.36895C20.0805 3.33361 19.9551 3.33007 19.8351 3.35869C19.7151 3.3873 19.6048 3.44706 19.5153 3.53193C19.4258 3.6168 19.3603 3.72378 19.3253 3.84207C19.2904 3.96037 19.2873 4.08579 19.3163 4.20567L19.5184 5.04767C15.1379 6.55438 11.4923 9.66724 9.31784 13.7576C8.54211 15.2191 7.97188 16.7808 7.6233 18.3983C7.58621 18.575 7.59241 18.7581 7.64138 18.932C7.69036 19.1058 7.78065 19.2653 7.90455 19.3967C8.00939 19.508 8.13614 19.5964 8.27681 19.6563C8.41749 19.7162 8.56905 19.7463 8.72194 19.7447Z" fill="black"/>
<path d="M5.26432 34.3662C5.29706 34.3991 5.33596 34.4251 5.37879 34.4429C5.42162 34.4607 5.46755 34.4699 5.51393 34.4699H9.73619C9.78258 34.4699 9.8285 34.4607 9.87133 34.4429C9.91416 34.4251 9.95306 34.3991 9.9858 34.3662L12.9706 31.3815C13.0034 31.3487 13.0295 31.3098 13.0473 31.267C13.0651 31.2242 13.0743 31.1782 13.0743 31.1318V26.9096C13.0743 26.8632 13.0651 26.8173 13.0473 26.7744C13.0295 26.7316 13.0034 26.6927 12.9706 26.66L9.9858 23.6752C9.95306 23.6424 9.91416 23.6163 9.87133 23.5985C9.8285 23.5807 9.78258 23.5715 9.73619 23.5715H5.51393C5.46755 23.5715 5.42162 23.5807 5.37879 23.5985C5.33596 23.6163 5.29706 23.6424 5.26432 23.6752L2.27955 26.66C2.2467 26.6927 2.22063 26.7316 2.20283 26.7744C2.18503 26.8173 2.17586 26.8632 2.17584 26.9096V31.1318C2.17586 31.1782 2.18503 31.2242 2.20283 31.267C2.22063 31.3098 2.2467 31.3487 2.27955 31.3815L5.26432 34.3662ZM5.3399 29.0207C5.33958 28.4916 5.52272 27.9788 5.85814 27.5697C6.19355 27.1605 6.66048 26.8803 7.17933 26.7769C7.69819 26.6734 8.23686 26.7531 8.70356 27.0023C9.17025 27.2515 9.53608 27.6549 9.7387 28.1436C9.94132 28.6323 9.96819 29.1762 9.81473 29.6825C9.66127 30.1889 9.33697 30.6263 8.89712 30.9203C8.45726 31.2143 7.92906 31.3467 7.40253 31.2949C6.87601 31.243 6.38374 31.0103 6.00963 30.6361C5.79652 30.4247 5.62757 30.173 5.5126 29.8957C5.39763 29.6183 5.33892 29.3209 5.3399 29.0207Z" fill="black"/>
</svg>
