<svg width="101" height="47" viewBox="0 0 101 47" fill="none" xmlns="http://www.w3.org/2000/svg">
<path d="M100.45 16.1492L93.3638 16.199C92.9562 14.1188 91.1158 12.2146 88.9198 12.2301L85.9199 12.2511C85.7489 12.2523 85.4175 11.6206 85.4176 11.6396L85.3716 5.08879C85.3542 2.60785 83.3168 0.269091 80.8358 0.286505L73.836 0.335637C71.355 0.353051 69.3546 2.72015 69.372 5.20109L69.4504 16.3668L31.4513 16.6335L31.373 5.46781C31.3556 2.98687 29.3181 0.648112 26.8371 0.665526L19.8373 0.714658C17.3564 0.732072 15.3559 3.09917 15.3734 5.58011L15.4198 12.1929C15.4196 12.1739 15.0927 12.7483 14.9217 12.7495L11.9217 12.7705C9.7478 12.7858 7.94251 14.7455 7.54093 16.8014L0.452101 16.8511L0.550365 30.8508L7.55819 30.8016C7.63227 33.2341 9.63022 34.7871 12.0762 34.77L15.0761 34.7489C15.2471 34.7477 15.5806 35.1104 15.5805 35.0914L15.6331 42.5792C15.6505 45.0601 17.6792 46.7309 20.1602 46.7135L27.16 46.6644C29.641 46.647 31.6501 44.9478 31.6327 42.4669L31.5496 30.6332L69.5487 30.3665L69.6317 42.2002C69.6491 44.6811 71.6779 46.3519 74.1589 46.3345L81.1587 46.2854C83.6396 46.268 85.6487 44.5688 85.6313 42.0879L85.5783 34.5371C85.5785 34.5561 85.9033 34.2518 86.0743 34.2506L89.0743 34.2295C91.4992 34.2125 93.457 32.6017 93.5291 30.1981L100.548 30.1489L100.45 16.1492ZM4.48008 20.8229L7.48 20.8019L7.52212 26.8017L4.52219 26.8228L4.48008 20.8229ZM15.5465 30.2455C15.5484 30.5215 15.326 30.7471 15.05 30.749L12.0501 30.7701C11.7741 30.772 11.5485 30.5496 11.5466 30.2736L11.4553 17.2739C11.4534 16.9979 11.6758 16.7723 11.9518 16.7704L14.9517 16.7493C15.2277 16.7474 15.4533 16.9698 15.4552 17.2458L15.5465 30.2455ZM27.6328 42.495C27.6347 42.766 27.4029 42.6626 27.1319 42.6645L20.1321 42.7136C19.8611 42.7155 19.6349 42.8221 19.633 42.5511L19.5492 30.6134L19.4579 17.6137L19.3733 5.55203C19.3714 5.28104 19.5944 4.71646 19.8654 4.71456L26.8652 4.66543C27.1362 4.66353 27.3712 5.22489 27.3731 5.49588L27.6328 42.495ZM31.5215 26.6333L31.4794 20.6334L69.4785 20.3667L69.5206 26.3666L31.5215 26.6333ZM81.6314 42.116C81.6333 42.3869 81.4016 42.2836 81.1306 42.2855L74.1308 42.3346C73.8598 42.3365 73.6335 42.4431 73.6316 42.1721L73.3719 5.17301C73.37 4.90202 73.5931 4.33744 73.8641 4.33554L80.8639 4.28641C81.1349 4.2845 81.3698 4.84587 81.3717 5.11686L81.456 17.1166L81.5472 30.1162L81.6314 42.116ZM89.5447 29.7261C89.5466 30.0021 89.3242 30.2277 89.0482 30.2296L86.0483 30.2507C85.7723 30.2526 85.5467 30.0302 85.5448 29.7542L85.4535 16.7545C85.4516 16.4785 85.674 16.2529 85.95 16.251L88.9499 16.2299C89.2259 16.228 89.4515 16.4504 89.4534 16.7264L89.5447 29.7261ZM96.5199 26.1771L93.52 26.1981L93.4779 20.1983L96.4778 20.1772L96.5199 26.1771Z" fill="#231F20"/>
</svg>
