<svg width="49" height="52" viewBox="0 0 49 52" fill="none" xmlns="http://www.w3.org/2000/svg">
<g clip-path="url(#clip0_4_81)">
<path d="M36.0415 14.0231L35.9832 13.8079C35.1218 10.6427 33.0272 7.94487 30.159 6.30627C27.2907 4.66767 23.883 4.22206 20.6833 5.06719L12.065 7.35447C8.86739 8.20719 6.14197 10.2805 4.48659 13.1197C2.83121 15.9588 2.38104 19.332 3.23482 22.4993L6.40864 34.2168C7.16354 37.023 8.77799 39.529 11.0301 41.3901L12.3406 42.4771L12.6903 43.7684C13.1816 45.5775 14.3784 47.1194 16.0178 48.0553C17.6571 48.9912 19.6048 49.2444 21.4327 48.7592L36.9416 44.6432C38.7703 44.1579 40.3293 42.9734 41.2756 41.3503C42.222 39.7271 42.4782 37.7984 41.9879 35.9883L41.6918 34.895L42.3509 33.8296C43.3568 32.1938 44.0177 30.3734 44.2938 28.478C44.57 26.5826 44.4557 24.6515 43.9578 22.8011L42.9991 19.2616C42.5875 17.7494 41.6811 16.415 40.4216 15.4673C39.1621 14.5195 37.6207 14.0119 36.0386 14.0239L36.0415 14.0231ZM36.02 41.2292L20.5082 45.346C20.0556 45.4661 19.5835 45.4968 19.1189 45.4364C18.6542 45.3759 18.2062 45.2254 17.8003 44.9935C16.9806 44.5253 16.3824 43.7538 16.1374 42.849L38.5441 36.9023C38.6655 37.3504 38.6965 37.8179 38.6353 38.2779C38.5741 38.7379 38.422 39.1815 38.1876 39.5833C37.9532 39.9851 37.6412 40.3373 37.2692 40.6197C36.8973 40.9021 36.4728 41.1092 36.02 41.2292ZM40.5139 23.7151C40.8868 25.103 40.972 26.5513 40.7646 27.9728C40.5571 29.3943 40.0612 30.7595 39.3068 31.9862L38.5269 33.2482L14.4693 39.6331L13.3213 38.6813C11.6314 37.2838 10.4201 35.4026 9.85383 33.2963L8.28188 27.4928C9.49181 27.8161 10.7666 27.8168 11.9769 27.4948L24.042 24.2927C24.4991 24.1714 24.8887 23.8754 25.1253 23.4697C25.3618 23.064 25.4258 22.5819 25.3033 22.1295C25.1808 21.677 24.8817 21.2913 24.4718 21.0572C24.062 20.823 23.5749 20.7596 23.1179 20.8809L11.0543 24.0826C10.6014 24.203 10.1291 24.2338 9.66421 24.1734C9.19932 24.113 8.75103 23.9625 8.34493 23.7305C7.93884 23.4985 7.58292 23.1896 7.29751 22.8214C7.0121 22.4531 6.8028 22.0328 6.68156 21.5845C6.07163 19.3221 6.39317 16.9125 7.57565 14.8844C8.75813 12.8564 10.705 11.3753 12.9892 10.7663L21.6075 8.47899C23.8931 7.87524 26.3273 8.19353 28.3761 9.36402C30.425 10.5345 31.9212 12.4616 32.5365 14.7227L32.5948 14.9379C31.2189 15.7109 30.1407 16.9138 29.5292 18.3581C28.9176 19.8024 28.8071 21.4067 29.215 22.9198L30.6012 28.0375C30.7237 28.49 31.0228 28.8757 31.4327 29.1098C31.8425 29.344 32.3296 29.4074 32.7866 29.2861C33.2437 29.1648 33.6334 28.8687 33.8699 28.463C34.1064 28.0573 34.1705 27.5752 34.0479 27.1228L32.6617 22.0051C32.4166 21.1 32.5447 20.1356 33.0179 19.3241C33.4911 18.5125 34.2706 17.9203 35.1849 17.6776C36.0992 17.4349 37.0735 17.5618 37.8933 18.0301C38.7132 18.4985 39.3115 19.2701 39.5567 20.1752L40.5139 23.7151Z" fill="white"/>
<path d="M36.0415 14.0231L35.9832 13.8079C35.1218 10.6427 33.0272 7.94487 30.159 6.30627C27.2907 4.66767 23.883 4.22206 20.6833 5.06719L12.065 7.35447C8.86739 8.20719 6.14197 10.2805 4.48659 13.1197C2.83121 15.9588 2.38104 19.332 3.23482 22.4993L6.40864 34.2168C7.16354 37.023 8.77799 39.529 11.0301 41.3901L12.3406 42.4771L12.6903 43.7684C13.1816 45.5775 14.3784 47.1194 16.0178 48.0553C17.6571 48.9912 19.6048 49.2444 21.4327 48.7592L36.9416 44.6432C38.7703 44.1579 40.3293 42.9734 41.2756 41.3503C42.222 39.7271 42.4782 37.7984 41.9879 35.9883L41.6918 34.895L42.3509 33.8296C43.3568 32.1938 44.0177 30.3734 44.2938 28.478C44.57 26.5826 44.4557 24.6515 43.9578 22.8011L42.9991 19.2616C42.5875 17.7494 41.6811 16.415 40.4216 15.4673C39.1621 14.5195 37.6207 14.0119 36.0386 14.0239L36.0415 14.0231ZM36.02 41.2292L20.5082 45.346C20.0556 45.4661 19.5835 45.4968 19.1189 45.4364C18.6542 45.3759 18.2062 45.2254 17.8003 44.9935C16.9806 44.5253 16.3824 43.7538 16.1374 42.849L38.5441 36.9023C38.6655 37.3504 38.6965 37.8179 38.6353 38.2779C38.5741 38.7379 38.422 39.1815 38.1876 39.5833C37.9532 39.9851 37.6412 40.3373 37.2692 40.6197C36.8973 40.9021 36.4728 41.1092 36.02 41.2292ZM40.5139 23.7151C40.8868 25.103 40.972 26.5513 40.7646 27.9728C40.5571 29.3943 40.0612 30.7595 39.3068 31.9862L38.5269 33.2482L14.4693 39.6331L13.3213 38.6813C11.6314 37.2838 10.4201 35.4026 9.85383 33.2963L8.28188 27.4928C9.49181 27.8161 10.7666 27.8168 11.9769 27.4948L24.042 24.2927C24.4991 24.1714 24.8887 23.8754 25.1253 23.4697C25.3618 23.064 25.4258 22.5819 25.3033 22.1295C25.1808 21.677 24.8817 21.2913 24.4718 21.0572C24.062 20.823 23.5749 20.7596 23.1179 20.8809L11.0543 24.0826C10.6014 24.203 10.1291 24.2338 9.66421 24.1734C9.19932 24.113 8.75103 23.9625 8.34493 23.7305C7.93884 23.4985 7.58292 23.1896 7.29751 22.8214C7.0121 22.4531 6.8028 22.0328 6.68156 21.5845C6.07163 19.3221 6.39317 16.9125 7.57565 14.8844C8.75813 12.8564 10.705 11.3753 12.9892 10.7663L21.6075 8.47899C23.8931 7.87524 26.3273 8.19353 28.3761 9.36402C30.425 10.5345 31.9212 12.4616 32.5365 14.7227L32.5948 14.9379C31.2189 15.7109 30.1407 16.9138 29.5292 18.3581C28.9176 19.8024 28.8071 21.4067 29.215 22.9198L30.6012 28.0375C30.7237 28.49 31.0228 28.8757 31.4327 29.1098C31.8425 29.344 32.3296 29.4074 32.7866 29.2861C33.2437 29.1648 33.6334 28.8687 33.8699 28.463C34.1064 28.0573 34.1705 27.5752 34.0479 27.1228L32.6617 22.0051C32.4166 21.1 32.5447 20.1356 33.0179 19.3241C33.4911 18.5125 34.2706 17.9203 35.1849 17.6776C36.0992 17.4349 37.0735 17.5618 37.8933 18.0301C38.7132 18.4985 39.3115 19.2701 39.5567 20.1752L40.5139 23.7151Z" fill="#E84444"/>
</g>
<defs>
<clipPath id="clip0_4_81">
<rect width="49" height="51" fill="white" transform="translate(0 0.5)"/>
</clipPath>
</defs>
</svg>
